<?xml version="1.0" standalone="yes"?>

<svg version="1.1" viewBox="0.0 0.0 594.1233595800525 208.01837270341207" fill="none" stroke="none" stroke-linecap="square" stroke-miterlimit="10" xmlns="http://www.w3.org/2000/svg" xmlns:xlink="http://www.w3.org/1999/xlink"><clipPath id="p.0"><path d="m0 0l594.12335 0l0 208.01837l-594.12335 0l0 -208.01837z" clip-rule="nonzero"></path></clipPath><g clip-path="url(#p.0)"><path fill="#000000" fill-opacity="0.0" d="m0 0l594.12335 0l0 208.01837l-594.12335 0z" fill-rule="nonzero"></path><path fill="#000000" fill-opacity="0.0" d="m11.329396 11.3254595l154.51968 0l0 55.307087l-154.51968 0z" fill-rule="nonzero"></path><path fill="#000000" d="m31.389479 30.656708q0 1.21875 -0.890625 1.90625q-0.890625 0.6875 -2.40625 0.6875q-1.65625 0 -2.546875 -0.421875l0 -1.046875q0.578125 0.25 1.25 0.390625q0.671875 0.140625 1.328125 0.140625q1.078125 0 1.625 -0.40625q0.546875 -0.421875 0.546875 -1.15625q0 -0.46875 -0.203125 -0.78125q-0.1875 -0.3125 -0.640625 -0.5625q-0.453125 -0.265625 -1.375 -0.59375q-1.296875 -0.46875 -1.859375 -1.09375q-0.546875 -0.640625 -0.546875 -1.671875q0 -1.0625 0.796875 -1.6875q0.8125 -0.640625 2.140625 -0.640625q1.375 0 2.546875 0.5l-0.34375 0.9375q-1.140625 -0.484375 -2.234375 -0.484375q-0.859375 0 -1.34375 0.375q-0.46875 0.359375 -0.46875 1.015625q0 0.484375 0.171875 0.796875q0.171875 0.3125 0.59375 0.5625q0.421875 0.25 1.296875 0.5625q1.46875 0.53125 2.015625 1.125q0.546875 0.59375 0.546875 1.546875zm7.924223 -1.015625q0 1.703125 -0.859375 2.65625q-0.859375 0.953125 -2.375 0.953125q-0.921875 0 -1.65625 -0.4375q-0.71875 -0.4375 -1.109375 -1.25q-0.390625 -0.828125 -0.390625 -1.921875q0 -1.703125 0.84375 -2.640625q0.859375 -0.953125 2.359375 -0.953125q1.46875 0 2.328125 0.96875q0.859375 0.96875 0.859375 2.625zm-5.296875 0q0 1.328125 0.53125 2.03125q0.53125 0.703125 1.5625 0.703125q1.03125 0 1.5625 -0.6875q0.546875 -0.703125 0.546875 -2.046875q0 -1.328125 -0.546875 -2.015625q-0.53125 -0.6875 -1.578125 -0.6875q-1.03125 0 -1.5625 0.6875q-0.515625 0.671875 -0.515625 2.015625zm8.331497 -3.46875l0 4.515625q0 0.84375 0.375 1.265625q0.390625 0.421875 1.21875 0.421875q1.09375 0 1.59375 -0.59375q0.515625 -0.609375 0.515625 -1.953125l0 -3.65625l1.046875 0l0 6.953125l-0.859375 0l-0.15625 -0.9375l-0.0625 0q-0.328125 0.515625 -0.90625 0.796875q-0.5625 0.265625 -1.296875 0.265625q-1.28125 0 -1.90625 -0.59375q-0.625 -0.609375 -0.625 -1.9375l0 -4.546875l1.0625 0zm10.367905 -0.125q0.453125 0 0.828125 0.0625l-0.140625 0.984375q-0.4375 -0.09375 -0.765625 -0.09375q-0.84375 0 -1.453125 0.6875q-0.59375 0.6875 -0.59375 1.703125l0 3.734375l-1.046875 0l0 -6.953125l0.859375 0l0.125 1.28125l0.046875 0q0.390625 -0.671875 0.9375 -1.03125q0.546875 -0.375 1.203125 -0.375zm5.0343323 7.203125q-1.5 0 -2.328125 -0.921875q-0.828125 -0.9375 -0.828125 -2.640625q0 -1.75 0.828125 -2.6875q0.84375 -0.953125 2.40625 -0.953125q0.5 0 1.0 0.109375q0.5 0.09375 0.78125 0.25l-0.3125 0.890625q-0.359375 -0.140625 -0.765625 -0.234375q-0.40625 -0.09375 -0.734375 -0.09375q-2.109375 0 -2.109375 2.703125q0 1.28125 0.515625 1.96875q0.515625 0.6875 1.53125 0.6875q0.859375 0 1.78125 -0.375l0 0.9375q-0.703125 0.359375 -1.765625 0.359375zm6.517063 0q-1.5468788 0 -2.4375038 -0.9375q-0.890625 -0.9375 -0.890625 -2.609375q0 -1.6875 0.828125 -2.671875q0.828125 -0.984375 2.21875 -0.984375q1.3125038 0 2.0625038 0.859375q0.765625 0.859375 0.765625 2.265625l0 0.671875l-4.781254 0q0.03125 1.21875 0.609375 1.859375q0.59375 0.625 1.6562538 0.625q1.125 0 2.21875 -0.46875l0 0.9375q-0.5625 0.25 -1.0625 0.34375q-0.484375 0.109375 -1.1875 0.109375zm-0.2968788 -6.328125q-0.828125 0 -1.328125 0.546875q-0.5 0.546875 -0.59375 1.515625l3.6406288 0q0 -1.0 -0.453125 -1.53125q-0.4375 -0.53125 -1.2656288 -0.53125zm8.455372 6.203125l0 -9.28125l1.078125 0l0 9.28125l-1.078125 0zm8.309753 0l0 -4.5q0 -0.84375 -0.390625 -1.265625q-0.375 -0.421875 -1.203125 -0.421875q-1.09375 0 -1.609375 0.59375q-0.5 0.578125 -0.5 1.9375l0 3.65625l-1.046875 0l0 -6.953125l0.84375 0l0.171875 0.953125l0.0625 0q0.3125 -0.515625 0.890625 -0.796875q0.59375 -0.28125 1.3125 -0.28125q1.25 0 1.890625 0.609375q0.640625 0.59375 0.640625 1.9375l0 4.53125l-1.0625 0zm6.6647797 0.125q-0.6875 0 -1.25 -0.25q-0.5625 -0.25 -0.9375 -0.765625l-0.078125 0q0.078125 0.609375 0.078125 1.15625l0 2.859375l-1.046875 0l0 -10.078125l0.84375 0l0.15625 0.953125l0.046875 0q0.40625 -0.578125 0.9375 -0.828125q0.546875 -0.25 1.25 -0.25q1.375 0 2.125 0.953125q0.765625 0.9375 0.765625 2.640625q0 1.71875 -0.765625 2.671875q-0.765625 0.9375 -2.125 0.9375zm-0.15625 -6.3125q-1.0625 0 -1.546875 0.59375q-0.46875 0.578125 -0.484375 1.875l0 0.234375q0 1.46875 0.484375 2.109375q0.5 0.625 1.578125 0.625q0.890625 0 1.40625 -0.734375q0.515625 -0.734375 0.515625 -2.015625q0 -1.296875 -0.515625 -1.984375q-0.515625 -0.703125 -1.4375 -0.703125zm6.073639 -0.765625l0 4.515625q0 0.84375 0.375 1.265625q0.390625 0.421875 1.21875 0.421875q1.09375 0 1.59375 -0.59375q0.515625 -0.609375 0.515625 -1.953125l0 -3.65625l1.046875 0l0 6.953125l-0.859375 0l-0.15625 -0.9375l-0.0625 0q-0.328125 0.515625 -0.90625 0.796875q-0.5625 0.265625 -1.296875 0.265625q-1.28125 0 -1.90625 -0.59375q-0.625 -0.609375 -0.625 -1.9375l0 -4.546875l1.0625 0zm9.430405 6.203125q0.28125 0 0.546875 -0.03125q0.265625 -0.046875 0.40625 -0.09375l0 0.8125q-0.171875 0.078125 -0.5 0.125q-0.328125 0.0625 -0.59375 0.0625q-2.03125 0 -2.03125 -2.125l0 -4.140625l-0.984375 0l0 -0.5l0.984375 -0.4375l0.453125 -1.484375l0.609375 0l0 1.609375l2.015625 0l0 0.8125l-2.015625 0l0 4.09375q0 0.625 0.296875 0.96875q0.296875 0.328125 0.8125 0.328125zm11.323639 -1.71875q0 1.21875 -0.890625 1.90625q-0.890625 0.6875 -2.40625 0.6875q-1.65625 0 -2.546875 -0.421875l0 -1.046875q0.578125 0.25 1.25 0.390625q0.671875 0.140625 1.328125 0.140625q1.078125 0 1.625 -0.40625q0.546875 -0.421875 0.546875 -1.15625q0 -0.46875 -0.203125 -0.78125q-0.1875 -0.3125 -0.640625 -0.5625q-0.453125 -0.265625 -1.375 -0.59375q-1.296875 -0.46875 -1.859375 -1.09375q-0.546875 -0.640625 -0.546875 -1.671875q0 -1.0625 0.796875 -1.6875q0.8125 -0.640625 2.140625 -0.640625q1.375 0 2.546875 0.5l-0.34375 0.9375q-1.140625 -0.484375 -2.234375 -0.484375q-0.859375 0 -1.34375 0.375q-0.46875 0.359375 -0.46875 1.015625q0 0.484375 0.171875 0.796875q0.171875 0.3125 0.59375 0.5625q0.421875 0.25 1.296875 0.5625q1.46875 0.53125 2.015625 1.125q0.546875 0.59375 0.546875 1.546875zm4.1586 1.71875q0.28125 0 0.546875 -0.03125q0.265625 -0.046875 0.40625 -0.09375l0 0.8125q-0.171875 0.078125 -0.5 0.125q-0.328125 0.0625 -0.59375 0.0625q-2.03125 0 -2.03125 -2.125l0 -4.140625l-0.984375 0l0 -0.5l0.984375 -0.4375l0.453125 -1.484375l0.609375 0l0 1.609375l2.015625 0l0 0.8125l-2.015625 0l0 4.09375q0 0.625 0.296875 0.96875q0.296875 0.328125 0.8125 0.328125zm5.6427 -6.328125q0.453125 0 0.828125 0.0625l-0.140625 0.984375q-0.4375 -0.09375 -0.765625 -0.09375q-0.84375 0 -1.453125 0.6875q-0.59375 0.6875 -0.59375 1.703125l0 3.734375l-1.046875 0l0 -6.953125l0.859375 0l0.125 1.28125l0.046875 0q0.390625 -0.671875 0.9375 -1.03125q0.546875 -0.375 1.203125 -0.375zm5.2062073 7.203125q-1.546875 0 -2.4375 -0.9375q-0.890625 -0.9375 -0.890625 -2.609375q0 -1.6875 0.828125 -2.671875q0.828125 -0.984375 2.21875 -0.984375q1.3125 0 2.0625 0.859375q0.765625 0.859375 0.765625 2.265625l0 0.671875l-4.78125 0q0.03125 1.21875 0.609375 1.859375q0.59375 0.625 1.65625 0.625q1.125 0 2.21875 -0.46875l0 0.9375q-0.5625 0.25 -1.0625 0.34375q-0.484375 0.109375 -1.1875 0.109375zm-0.296875 -6.328125q-0.828125 0 -1.328125 0.546875q-0.5 0.546875 -0.59375 1.515625l3.640625 0q0 -1.0 -0.453125 -1.53125q-0.4375 -0.53125 -1.265625 -0.53125zm9.102554 6.203125l-0.203125 -0.984375l-0.046875 0q-0.53125 0.640625 -1.046875 0.875q-0.515625 0.234375 -1.28125 0.234375q-1.046875 0 -1.640625 -0.53125q-0.578125 -0.53125 -0.578125 -1.515625q0 -2.109375 3.375 -2.203125l1.171875 -0.046875l0 -0.4375q0 -0.8125 -0.359375 -1.203125q-0.34375 -0.390625 -1.109375 -0.390625q-0.875 0 -1.96875 0.53125l-0.328125 -0.796875q0.515625 -0.28125 1.125 -0.4375q0.609375 -0.171875 1.234375 -0.171875q1.25 0 1.84375 0.5625q0.59375 0.546875 0.59375 1.765625l0 4.75l-0.78125 0zm-2.375 -0.75q0.984375 0 1.546875 -0.53125q0.5625 -0.546875 0.5625 -1.515625l0 -0.625l-1.0625 0.046875q-1.25 0.046875 -1.8125 0.390625q-0.546875 0.34375 -0.546875 1.078125q0 0.5625 0.34375 0.859375q0.34375 0.296875 0.96875 0.296875zm14.381226 0.75l0 -4.53125q0 -0.828125 -0.359375 -1.234375q-0.34375 -0.421875 -1.09375 -0.421875q-0.984375 0 -1.453125 0.5625q-0.46875 0.5625 -0.46875 1.734375l0 3.890625l-1.0625 0l0 -4.53125q0 -0.828125 -0.359375 -1.234375q-0.34375 -0.421875 -1.109375 -0.421875q-0.984375 0 -1.453125 0.59375q-0.453125 0.59375 -0.453125 1.9375l0 3.65625l-1.046875 0l0 -6.953125l0.84375 0l0.171875 0.953125l0.0625 0q0.296875 -0.515625 0.828125 -0.796875q0.546875 -0.28125 1.21875 -0.28125q1.640625 0 2.140625 1.171875l0.046875 0q0.3125 -0.546875 0.890625 -0.859375q0.59375 -0.3125 1.359375 -0.3125q1.171875 0 1.75 0.609375q0.59375 0.59375 0.59375 1.9375l0 4.53125l-1.046875 0z" fill-rule="nonzero"></path><path fill="#000000" d="m33.290043 45.562958q0 -1.6875 0.484375 -3.140625q0.5 -1.46875 1.4375 -2.578125l1.015625 0q-0.90625 1.21875 -1.375 2.6875q-0.453125 1.46875 -0.453125 3.015625q0 1.53125 0.46875 2.984375q0.46875 1.453125 1.359375 2.65625l-1.015625 0q-0.9375 -1.078125 -1.4375 -2.515625q-0.484375 -1.453125 -0.484375 -3.109375zm6.7875214 2.8125q0.28125 0 0.546875 -0.03125q0.265625 -0.046875 0.40625 -0.09375l0 0.8125q-0.171875 0.078125 -0.5 0.125q-0.328125 0.0625 -0.59375 0.0625q-2.03125 0 -2.03125 -2.125l0 -4.140625l-0.984375 0l0 -0.5l0.984375 -0.4375l0.453125 -1.484375l0.609375 0l0 1.609375l2.015625 0l0 0.8125l-2.015625 0l0 4.09375q0 0.625 0.296875 0.96875q0.296875 0.328125 0.8125 0.328125zm5.408325 0.875q-1.546875 0 -2.4375 -0.9375q-0.890625 -0.9375 -0.890625 -2.609375q0 -1.6875 0.828125 -2.671875q0.828125 -0.984375 2.21875 -0.984375q1.3125 0 2.0625 0.859375q0.765625 0.859375 0.765625 2.265625l0 0.671875l-4.78125 0q0.03125 1.21875 0.609375 1.859375q0.59375 0.625 1.65625 0.625q1.125 0 2.21875 -0.46875l0 0.9375q-0.5625 0.25 -1.0625 0.34375q-0.484375 0.109375 -1.1875 0.109375zm-0.296875 -6.328125q-0.828125 0 -1.328125 0.546875q-0.5 0.546875 -0.59375 1.515625l3.640625 0q0 -1.0 -0.453125 -1.53125q-0.4375 -0.53125 -1.265625 -0.53125zm8.008804 -0.875q0.453125 0 0.828125 0.0625l-0.140625 0.984375q-0.4375 -0.09375 -0.765625 -0.09375q-0.84375 0 -1.453125 0.6875q-0.59375 0.6875 -0.59375 1.703125l0 3.734375l-1.046875 0l0 -6.953125l0.859375 0l0.125 1.28125l0.046875 0q0.390625 -0.671875 0.9375 -1.03125q0.546875 -0.375 1.203125 -0.375zm11.128086 7.078125l0 -4.53125q0 -0.828125 -0.3593788 -1.234375q-0.34375 -0.421875 -1.09375 -0.421875q-0.984375 0 -1.453125 0.5625q-0.46875 0.5625 -0.46875 1.734375l0 3.890625l-1.0625 0l0 -4.53125q0 -0.828125 -0.359375 -1.234375q-0.34375 -0.421875 -1.109375 -0.421875q-0.984375 0 -1.453125 0.59375q-0.453125 0.59375 -0.453125 1.9375l0 3.65625l-1.046875 0l0 -6.953125l0.84375 0l0.171875 0.953125l0.0625 0q0.296875 -0.515625 0.828125 -0.796875q0.546875 -0.28125 1.21875 -0.28125q1.640625 0 2.140625 1.171875l0.046875 0q0.3125 -0.546875 0.890625 -0.859375q0.59375 -0.3125 1.359375 -0.3125q1.1718788 0 1.7500038 0.609375q0.59375 0.59375 0.59375 1.9375l0 4.53125l-1.046875 0zm4.6318817 -1.515625l0.09375 0.15625q-0.15625 0.625 -0.46875 1.46875q-0.3125 0.84375 -0.65625 1.5625l-0.78125 0q0.171875 -0.65625 0.375 -1.625q0.203125 -0.96875 0.28125 -1.5625l1.15625 0zm7.869766 0.765625q0.28125 0 0.546875 -0.03125q0.265625 -0.046875 0.40625 -0.09375l0 0.8125q-0.171875 0.078125 -0.5 0.125q-0.328125 0.0625 -0.59375 0.0625q-2.03125 0 -2.03125 -2.125l0 -4.140625l-0.984375 0l0 -0.5l0.984375 -0.4375l0.453125 -1.484375l0.609375 0l0 1.609375l2.015625 0l0 0.8125l-2.015625 0l0 4.09375q0 0.625 0.296875 0.96875q0.296875 0.328125 0.8125 0.328125zm3.5177002 0.75l-1.046875 0l0 -6.953125l1.046875 0l0 6.953125zm-1.140625 -8.84375q0 -0.359375 0.171875 -0.53125q0.1875 -0.171875 0.453125 -0.171875q0.25 0 0.421875 0.171875q0.1875 0.171875 0.1875 0.53125q0 0.359375 -0.1875 0.53125q-0.171875 0.171875 -0.421875 0.171875q-0.265625 0 -0.453125 -0.171875q-0.171875 -0.171875 -0.171875 -0.53125zm12.3242035 8.84375l0 -4.53125q0 -0.828125 -0.359375 -1.234375q-0.34375 -0.421875 -1.09375 -0.421875q-0.984375 0 -1.453125 0.5625q-0.46875 0.5625 -0.46875 1.734375l0 3.890625l-1.0625 0l0 -4.53125q0 -0.828125 -0.359375 -1.234375q-0.34375 -0.421875 -1.109375 -0.421875q-0.984375 0 -1.453125 0.59375q-0.453125 0.59375 -0.453125 1.9375l0 3.65625l-1.046875 0l0 -6.953125l0.84375 0l0.171875 0.953125l0.0625 0q0.296875 -0.515625 0.828125 -0.796875q0.546875 -0.28125 1.21875 -0.28125q1.640625 0 2.140625 1.171875l0.046875 0q0.3125 -0.546875 0.890625 -0.859375q0.59375 -0.3125 1.359375 -0.3125q1.171875 0 1.75 0.609375q0.59375 0.59375 0.59375 1.9375l0 4.53125l-1.046875 0zm6.4756317 0.125q-1.546875 0 -2.4375 -0.9375q-0.890625 -0.9375 -0.890625 -2.609375q0 -1.6875 0.828125 -2.671875q0.828125 -0.984375 2.21875 -0.984375q1.3125 0 2.0625 0.859375q0.765625 0.859375 0.765625 2.265625l0 0.671875l-4.78125 0q0.03125 1.21875 0.609375 1.859375q0.59375 0.625 1.65625 0.625q1.125 0 2.21875 -0.46875l0 0.9375q-0.5625 0.25 -1.0625 0.34375q-0.484375 0.109375 -1.1875 0.109375zm-0.296875 -6.328125q-0.828125 0 -1.328125 0.546875q-0.5 0.546875 -0.59375 1.515625l3.640625 0q0 -1.0 -0.453125 -1.53125q-0.4375 -0.53125 -1.265625 -0.53125zm9.321304 4.3125q0 0.96875 -0.734375 1.5q-0.71875 0.515625 -2.03125 0.515625q-1.375 0 -2.15625 -0.4375l0 -0.96875q0.5 0.25 1.078125 0.390625q0.578125 0.140625 1.109375 0.140625q0.828125 0 1.265625 -0.25q0.453125 -0.265625 0.453125 -0.8125q0 -0.40625 -0.359375 -0.6875q-0.34375 -0.296875 -1.375 -0.6875q-0.96875 -0.359375 -1.375 -0.625q-0.40625 -0.28125 -0.609375 -0.625q-0.203125 -0.34375 -0.203125 -0.8125q0 -0.84375 0.6875 -1.328125q0.703125 -0.5 1.90625 -0.5q1.125 0 2.1875 0.453125l-0.375 0.859375q-1.046875 -0.4375 -1.890625 -0.4375q-0.75 0 -1.140625 0.234375q-0.375 0.234375 -0.375 0.65625q0 0.265625 0.140625 0.46875q0.15625 0.203125 0.46875 0.375q0.3125 0.171875 1.21875 0.515625q1.234375 0.453125 1.671875 0.90625q0.4375 0.453125 0.4375 1.15625zm4.1082 1.140625q0.28125 0 0.546875 -0.03125q0.265625 -0.046875 0.40625 -0.09375l0 0.8125q-0.171875 0.078125 -0.5 0.125q-0.328125 0.0625 -0.59375 0.0625q-2.03125 0 -2.03125 -2.125l0 -4.140625l-0.984375 0l0 -0.5l0.984375 -0.4375l0.453125 -1.484375l0.609375 0l0 1.609375l2.015625 0l0 0.8125l-2.015625 0l0 4.09375q0 0.625 0.296875 0.96875q0.296875 0.328125 0.8125 0.328125zm6.73645 0.75l-0.203125 -0.984375l-0.046875 0q-0.53125 0.640625 -1.046875 0.875q-0.515625 0.234375 -1.28125 0.234375q-1.046875 0 -1.640625 -0.53125q-0.578125 -0.53125 -0.578125 -1.515625q0 -2.109375 3.375 -2.203125l1.171875 -0.046875l0 -0.4375q0 -0.8125 -0.359375 -1.203125q-0.34375 -0.390625 -1.109375 -0.390625q-0.875 0 -1.96875 0.53125l-0.328125 -0.796875q0.515625 -0.28125 1.125 -0.4375q0.609375 -0.171875 1.234375 -0.171875q1.25 0 1.84375 0.5625q0.59375 0.546875 0.59375 1.765625l0 4.75l-0.78125 0zm-2.375 -0.75q0.984375 0 1.546875 -0.53125q0.5625 -0.546875 0.5625 -1.515625l0 -0.625l-1.0625 0.046875q-1.25 0.046875 -1.8125 0.390625q-0.546875 0.34375 -0.546875 1.078125q0 0.5625 0.34375 0.859375q0.34375 0.296875 0.96875 0.296875zm14.381218 0.75l0 -4.53125q0 -0.828125 -0.359375 -1.234375q-0.34375 -0.421875 -1.09375 -0.421875q-0.9843674 0 -1.4531174 0.5625q-0.46875 0.5625 -0.46875 1.734375l0 3.890625l-1.0625 0l0 -4.53125q0 -0.828125 -0.359375 -1.234375q-0.34375 -0.421875 -1.109375 -0.421875q-0.984375 0 -1.453125 0.59375q-0.453125 0.59375 -0.453125 1.9375l0 3.65625l-1.046875 0l0 -6.953125l0.84375 0l0.171875 0.953125l0.0625 0q0.296875 -0.515625 0.828125 -0.796875q0.546875 -0.28125 1.21875 -0.28125q1.640625 0 2.140625 1.171875l0.046875 0q0.3125 -0.546875 0.890625 -0.859375q0.59375 -0.3125 1.3593674 -0.3125q1.171875 0 1.75 0.609375q0.59375 0.59375 0.59375 1.9375l0 4.53125l-1.046875 0zm6.7725067 0.125q-0.6875 0 -1.25 -0.25q-0.5625 -0.25 -0.9375 -0.765625l-0.078125 0q0.078125 0.609375 0.078125 1.15625l0 2.859375l-1.046875 0l0 -10.078125l0.84375 0l0.15625 0.953125l0.046875 0q0.40625 -0.578125 0.9375 -0.828125q0.546875 -0.25 1.25 -0.25q1.375 0 2.125 0.953125q0.765625 0.9375 0.765625 2.640625q0 1.71875 -0.765625 2.671875q-0.765625 0.9375 -2.125 0.9375zm-0.15625 -6.3125q-1.0625 0 -1.546875 0.59375q-0.46875 0.578125 -0.484375 1.875l0 0.234375q0 1.46875 0.484375 2.109375q0.5 0.625 1.578125 0.625q0.890625 0 1.40625 -0.734375q0.515625 -0.734375 0.515625 -2.015625q0 -1.296875 -0.515625 -1.984375q-0.515625 -0.703125 -1.4375 -0.703125zm7.292389 2.625q0 1.671875 -0.5 3.109375q-0.484375 1.4375 -1.40625 2.515625l-1.015625 0q0.875 -1.203125 1.34375 -2.65625q0.46875 -1.453125 0.46875 -2.984375q0 -1.546875 -0.46875 -3.015625q-0.453125 -1.46875 -1.359375 -2.6875l1.03125 0q0.921875 1.109375 1.40625 2.578125q0.5 1.46875 0.5 3.140625z" fill-rule="nonzero"></path><path fill="#000000" fill-opacity="0.0" d="m28.447506 79.419945l120.28346 0l0 55.30709l-120.28346 0z" fill-rule="nonzero"></path><path stroke="#000000" stroke-width="2.0" stroke-linejoin="round" stroke-linecap="butt" d="m28.447506 79.419945l120.28346 0l0 55.30709l-120.28346 0z" fill-rule="nonzero"></path><path fill="#000000" d="m53.455647 111.87349l0 -9.28125l1.078125 0l0 9.28125l-1.078125 0zm8.309753 0l0 -4.5q0 -0.84375 -0.390625 -1.265625q-0.375 -0.421875 -1.203125 -0.421875q-1.09375 0 -1.609375 0.59375q-0.5 0.578125 -0.5 1.9375l0 3.65625l-1.046875 0l0 -6.953125l0.84375 0l0.171875 0.953125l0.0625 0q0.3125 -0.515625 0.890625 -0.796875q0.59375 -0.28125 1.3125 -0.28125q1.25 0 1.890625 0.609375q0.640625 0.59375 0.640625 1.9375l0 4.53125l-1.0625 0zm6.6647835 0.125q-0.6875 0 -1.25 -0.25q-0.5625 -0.25 -0.9375 -0.765625l-0.078125 0q0.078125 0.609375 0.078125 1.15625l0 2.859375l-1.046875 0l0 -10.078125l0.84375 0l0.15625 0.953125l0.046875 0q0.40625 -0.578125 0.9375 -0.828125q0.546875 -0.25 1.25 -0.25q1.375 0 2.125 0.953125q0.765625 0.9375 0.765625 2.640625q0 1.71875 -0.765625 2.671875q-0.765625 0.9375 -2.125 0.9375zm-0.15625 -6.3125q-1.0625 0 -1.546875 0.59375q-0.46875 0.578125 -0.484375 1.875l0 0.234375q0 1.46875 0.484375 2.109375q0.5 0.625 1.578125 0.625q0.890625 0 1.40625 -0.734375q0.515625 -0.734375 0.515625 -2.015625q0 -1.296875 -0.515625 -1.984375q-0.515625 -0.703125 -1.4375 -0.703125zm6.073639 -0.765625l0 4.515625q0 0.84375 0.375 1.265625q0.390625 0.421875 1.21875 0.421875q1.09375 0 1.59375 -0.59375q0.515625 -0.609375 0.515625 -1.953125l0 -3.65625l1.046875 0l0 6.953125l-0.859375 0l-0.15625 -0.9375l-0.0625 0q-0.328125 0.515625 -0.90625 0.796875q-0.5625 0.265625 -1.296875 0.265625q-1.28125 0 -1.90625 -0.59375q-0.625 -0.609375 -0.625 -1.9375l0 -4.546875l1.0625 0zm9.430405 6.203125q0.28125 0 0.546875 -0.03125q0.265625 -0.046875 0.40625 -0.09375l0 0.8125q-0.171875 0.078125 -0.5 0.125q-0.328125 0.0625 -0.59375 0.0625q-2.03125 0 -2.03125 -2.125l0 -4.140625l-0.984375 0l0 -0.5l0.984375 -0.4375l0.453125 -1.484375l0.609375 0l0 1.609375l2.015625 0l0 0.8125l-2.015625 0l0 4.09375q0 0.625 0.296875 0.96875q0.296875 0.328125 0.8125 0.328125zm11.323639 -1.71875q0 1.21875 -0.890625 1.90625q-0.890625 0.6875 -2.40625 0.6875q-1.65625 0 -2.546875 -0.421875l0 -1.046875q0.578125 0.25 1.25 0.390625q0.671875 0.140625 1.328125 0.140625q1.078125 0 1.625 -0.40625q0.546875 -0.421875 0.546875 -1.15625q0 -0.46875 -0.203125 -0.78125q-0.1875 -0.3125 -0.640625 -0.5625q-0.453125 -0.265625 -1.375 -0.59375q-1.296875 -0.46875 -1.859375 -1.09375q-0.546875 -0.640625 -0.546875 -1.671875q0 -1.0625 0.796875 -1.6875q0.8125 -0.640625 2.140625 -0.640625q1.375 0 2.546875 0.5l-0.34375 0.9375q-1.140625 -0.484375 -2.234375 -0.484375q-0.859375 0 -1.34375 0.375q-0.46875 0.359375 -0.46875 1.015625q0 0.484375 0.171875 0.796875q0.171875 0.3125 0.59375 0.5625q0.421875 0.25 1.296875 0.5625q1.46875 0.53125 2.015625 1.125q0.546875 0.59375 0.546875 1.546875zm5.1586 2.59375q-0.6875 0 -1.25 -0.25q-0.5625 -0.25 -0.9375 -0.765625l-0.078125 0q0.078125 0.609375 0.078125 1.15625l0 2.859375l-1.046875 0l0 -10.078125l0.84375 0l0.15625 0.953125l0.046875 0q0.40625 -0.578125 0.9375 -0.828125q0.546875 -0.25 1.25 -0.25q1.375 0 2.125 0.953125q0.765625 0.9375 0.765625 2.640625q0 1.71875 -0.765625 2.671875q-0.765625 0.9375 -2.125 0.9375zm-0.15625 -6.3125q-1.0625 0 -1.546875 0.59375q-0.46875 0.578125 -0.484375 1.875l0 0.234375q0 1.46875 0.484375 2.109375q0.5 0.625 1.578125 0.625q0.890625 0 1.40625 -0.734375q0.515625 -0.734375 0.515625 -2.015625q0 -1.296875 -0.515625 -1.984375q-0.515625 -0.703125 -1.4375 -0.703125zm11.089264 2.703125q0 1.703125 -0.859375 2.65625q-0.859375 0.953125 -2.375 0.953125q-0.921875 0 -1.65625 -0.4375q-0.71875 -0.4375 -1.109375 -1.25q-0.390625 -0.828125 -0.390625 -1.921875q0 -1.703125 0.84375 -2.640625q0.859375 -0.953125 2.359375 -0.953125q1.46875 0 2.328125 0.96875q0.859375 0.96875 0.859375 2.625zm-5.296875 0q0 1.328125 0.53125 2.03125q0.53125 0.703125 1.5625 0.703125q1.03125 0 1.5625 -0.6875q0.546875 -0.703125 0.546875 -2.046875q0 -1.328125 -0.546875 -2.015625q-0.53125 -0.6875 -1.578125 -0.6875q-1.03125 0 -1.5625 0.6875q-0.515625 0.671875 -0.515625 2.015625zm8.331497 -3.46875l0 4.515625q0 0.84375 0.375 1.265625q0.390625 0.421875 1.21875 0.421875q1.09375 0 1.59375 -0.59375q0.515625 -0.609375 0.515625 -1.953125l0 -3.65625l1.046875 0l0 6.953125l-0.859375 0l-0.15625 -0.9375l-0.0625 0q-0.328125 0.515625 -0.90625 0.796875q-0.5625 0.265625 -1.296875 0.265625q-1.28125 0 -1.90625 -0.59375q-0.625 -0.609375 -0.625 -1.9375l0 -4.546875l1.0625 0zm9.430405 6.203125q0.28125 0 0.546875 -0.03125q0.265625 -0.046875 0.40625 -0.09375l0 0.8125q-0.171875 0.078125 -0.5 0.125q-0.328125 0.0625 -0.59375 0.0625q-2.03125 0 -2.03125 -2.125l0 -4.140625l-0.984375 0l0 -0.5l0.984375 -0.4375l0.453125 -1.484375l0.609375 0l0 1.609375l2.015625 0l0 0.8125l-2.015625 0l0 4.09375q0 0.625 0.296875 0.96875q0.296875 0.328125 0.8125 0.328125z" fill-rule="nonzero"></path><path fill="#000000" fill-opacity="0.0" d="m167.3329 79.419945l120.28346 0l0 55.30709l-120.28346 0z" fill-rule="nonzero"></path><path stroke="#000000" stroke-width="2.0" stroke-linejoin="round" stroke-linecap="butt" d="m167.3329 79.419945l120.28346 0l0 55.30709l-120.28346 0z" fill-rule="nonzero"></path><path fill="#000000" d="m198.79239 109.40474q0 1.21875 -0.890625 1.90625q-0.890625 0.6875 -2.40625 0.6875q-1.65625 0 -2.546875 -0.421875l0 -1.046875q0.578125 0.25 1.25 0.390625q0.671875 0.140625 1.328125 0.140625q1.078125 0 1.625 -0.40625q0.546875 -0.421875 0.546875 -1.15625q0 -0.46875 -0.203125 -0.78125q-0.1875 -0.3125 -0.640625 -0.5625q-0.453125 -0.265625 -1.375 -0.59375q-1.296875 -0.46875 -1.859375 -1.09375q-0.546875 -0.640625 -0.546875 -1.671875q0 -1.0625 0.796875 -1.6875q0.8125 -0.640625 2.140625 -0.640625q1.375 0 2.546875 0.5l-0.34375 0.9375q-1.140625 -0.484375 -2.234375 -0.484375q-0.859375 0 -1.34375 0.375q-0.46875 0.359375 -0.46875 1.015625q0 0.484375 0.171875 0.796875q0.171875 0.3125 0.59375 0.5625q0.421875 0.25 1.296875 0.5625q1.46875 0.53125 2.015625 1.125q0.546875 0.59375 0.546875 1.546875zm4.861725 2.59375q-1.546875 0 -2.4375 -0.9375q-0.890625 -0.9375 -0.890625 -2.609375q0 -1.6875 0.828125 -2.671875q0.828125 -0.984375 2.21875 -0.984375q1.3125 0 2.0625 0.859375q0.765625 0.859375 0.765625 2.265625l0 0.671875l-4.78125 0q0.03125 1.21875 0.609375 1.859375q0.59375 0.625 1.65625 0.625q1.125 0 2.21875 -0.46875l0 0.9375q-0.5625 0.25 -1.0625 0.34375q-0.484375 0.109375 -1.1875 0.109375zm-0.296875 -6.328125q-0.828125 0 -1.328125 0.546875q-0.5 0.546875 -0.59375 1.515625l3.640625 0q0 -1.0 -0.453125 -1.53125q-0.4375 -0.53125 -1.265625 -0.53125zm9.102554 6.203125l-0.203125 -0.984375l-0.046875 0q-0.53125 0.640625 -1.046875 0.875q-0.515625 0.234375 -1.28125 0.234375q-1.046875 0 -1.640625 -0.53125q-0.578125 -0.53125 -0.578125 -1.515625q0 -2.109375 3.375 -2.203125l1.171875 -0.046875l0 -0.4375q0 -0.8125 -0.359375 -1.203125q-0.34375 -0.390625 -1.109375 -0.390625q-0.875 0 -1.96875 0.53125l-0.328125 -0.796875q0.515625 -0.28125 1.125 -0.4375q0.609375 -0.171875 1.234375 -0.171875q1.25 0 1.84375 0.5625q0.59375 0.546875 0.59375 1.765625l0 4.75l-0.78125 0zm-2.375 -0.75q0.984375 0 1.546875 -0.53125q0.5625 -0.546875 0.5625 -1.515625l0 -0.625l-1.0625 0.046875q-1.25 0.046875 -1.8125 0.390625q-0.546875 0.34375 -0.546875 1.078125q0 0.5625 0.34375 0.859375q0.34375 0.296875 0.96875 0.296875zm8.693726 -6.328125q0.453125 0 0.828125 0.0625l-0.140625 0.984375q-0.4375 -0.09375 -0.765625 -0.09375q-0.84375 0 -1.453125 0.6875q-0.59375 0.6875 -0.59375 1.703125l0 3.734375l-1.046875 0l0 -6.953125l0.859375 0l0.125 1.28125l0.046875 0q0.390625 -0.671875 0.9375 -1.03125q0.546875 -0.375 1.203125 -0.375zm5.0343323 7.203125q-1.5 0 -2.328125 -0.921875q-0.828125 -0.9375 -0.828125 -2.640625q0 -1.75 0.828125 -2.6875q0.84375 -0.953125 2.40625 -0.953125q0.5 0 1.0 0.109375q0.5 0.09375 0.78125 0.25l-0.3125 0.890625q-0.359375 -0.140625 -0.765625 -0.234375q-0.40625 -0.09375 -0.734375 -0.09375q-2.109375 0 -2.109375 2.703125q0 1.28125 0.515625 1.96875q0.515625 0.6875 1.53125 0.6875q0.859375 0 1.78125 -0.375l0 0.9375q-0.703125 0.359375 -1.765625 0.359375zm8.329559 -0.125l0 -4.5q0 -0.84375 -0.390625 -1.265625q-0.375 -0.421875 -1.203125 -0.421875q-1.09375 0 -1.609375 0.59375q-0.5 0.59375 -0.5 1.953125l0 3.640625l-1.046875 0l0 -9.875l1.046875 0l0 2.984375q0 0.546875 -0.046875 0.890625l0.0625 0q0.3125 -0.5 0.875 -0.78125q0.578125 -0.296875 1.3125 -0.296875q1.28125 0 1.921875 0.609375q0.640625 0.609375 0.640625 1.9375l0 4.53125l-1.0625 0zm7.0488434 -9.28125l2.609375 0q1.859375 0 2.671875 0.5625q0.828125 0.546875 0.828125 1.734375q0 0.828125 -0.46875 1.375q-0.453125 0.53125 -1.328125 0.6875l0 0.0625q2.109375 0.359375 2.109375 2.21875q0 1.25 -0.84375 1.953125q-0.828125 0.6875 -2.34375 0.6875l-3.234375 0l0 -9.28125zm1.078125 3.96875l1.765625 0q1.15625 0 1.65625 -0.359375q0.5 -0.359375 0.5 -1.203125q0 -0.78125 -0.5625 -1.125q-0.5625 -0.34375 -1.78125 -0.34375l-1.578125 0l0 3.03125zm0 0.921875l0 3.46875l1.9375 0q1.125 0 1.6875 -0.4375q0.5625 -0.4375 0.5625 -1.359375q0 -0.859375 -0.578125 -1.265625q-0.578125 -0.40625 -1.765625 -0.40625l-1.84375 0zm13.401581 0.90625q0 1.703125 -0.859375 2.65625q-0.859375 0.953125 -2.375 0.953125q-0.921875 0 -1.65625 -0.4375q-0.71875 -0.4375 -1.109375 -1.25q-0.390625 -0.828125 -0.390625 -1.921875q0 -1.703125 0.84375 -2.640625q0.859375 -0.953125 2.359375 -0.953125q1.46875 0 2.328125 0.96875q0.859375 0.96875 0.859375 2.625zm-5.296875 0q0 1.328125 0.53125 2.03125q0.53125 0.703125 1.5625 0.703125q1.03125 0 1.5625 -0.6875q0.546875 -0.703125 0.546875 -2.046875q0 -1.328125 -0.546875 -2.015625q-0.53125 -0.6875 -1.578125 -0.6875q-1.03125 0 -1.5625 0.6875q-0.515625 0.671875 -0.515625 2.015625zm8.394012 3.484375l-1.0468903 0l0 -9.875l1.0468903 0l0 9.875zm4.558563 -0.75q0.28125 0 0.546875 -0.03125q0.265625 -0.046875 0.40625 -0.09375l0 0.8125q-0.171875 0.078125 -0.5 0.125q-0.328125 0.0625 -0.59375 0.0625q-2.03125 0 -2.03125 -2.125l0 -4.140625l-0.984375 0l0 -0.5l0.984375 -0.4375l0.453125 -1.484375l0.609375 0l0 1.609375l2.015625 0l0 0.8125l-2.015625 0l0 4.09375q0 0.625 0.296875 0.96875q0.296875 0.328125 0.8125 0.328125z" fill-rule="nonzero"></path><path fill="#000000" fill-opacity="0.0" d="m306.2183 79.419945l120.28345 0l0 55.30709l-120.28345 0z" fill-rule="nonzero"></path><path stroke="#000000" stroke-width="2.0" stroke-linejoin="round" stroke-linecap="butt" d="m306.2183 79.419945l120.28345 0l0 55.30709l-120.28345 0z" fill-rule="nonzero"></path><path fill="#000000" d="m330.34787 111.87349l0 -9.28125l1.078125 0l0 8.296875l4.09375 0l0 0.984375l-5.171875 0zm12.761627 -3.484375q0 1.703125 -0.859375 2.65625q-0.859375 0.953125 -2.375 0.953125q-0.921875 0 -1.65625 -0.4375q-0.71875 -0.4375 -1.109375 -1.25q-0.390625 -0.828125 -0.390625 -1.921875q0 -1.703125 0.84375 -2.640625q0.859375 -0.953125 2.359375 -0.953125q1.46875 0 2.328125 0.96875q0.859375 0.96875 0.859375 2.625zm-5.296875 0q0 1.328125 0.53125 2.03125q0.53125 0.703125 1.5625 0.703125q1.03125 0 1.5625 -0.6875q0.546875 -0.703125 0.546875 -2.046875q0 -1.328125 -0.546875 -2.015625q-0.53125 -0.6875 -1.578125 -0.6875q-1.03125 0 -1.5625 0.6875q-0.515625 0.671875 -0.515625 2.015625zm13.347107 0q0 1.703125 -0.859375 2.65625q-0.859375 0.953125 -2.375 0.953125q-0.921875 0 -1.65625 -0.4375q-0.71875 -0.4375 -1.109375 -1.25q-0.390625 -0.828125 -0.390625 -1.921875q0 -1.703125 0.84375 -2.640625q0.859375 -0.953125 2.359375 -0.953125q1.46875 0 2.328125 0.96875q0.859375 0.96875 0.859375 2.625zm-5.296875 0q0 1.328125 0.53125 2.03125q0.53125 0.703125 1.5625 0.703125q1.03125 0 1.5625 -0.6875q0.546875 -0.703125 0.546875 -2.046875q0 -1.328125 -0.546875 -2.015625q-0.53125 -0.6875 -1.578125 -0.6875q-1.03125 0 -1.5625 0.6875q-0.515625 0.671875 -0.515625 2.015625zm8.378387 -0.078125q0.28125 -0.390625 0.828125 -1.015625l2.25 -2.375l1.25 0l-2.8125 2.953125l3.015625 4.0l-1.28125 0l-2.453125 -3.28125l-0.796875 0.671875l0 2.609375l-1.03125 0l0 -9.875l1.03125 0l0 5.234375q0 0.34375 -0.046875 1.078125l0.046875 0zm6.9490967 -3.390625l0 4.515625q0 0.84375 0.375 1.265625q0.390625 0.421875 1.21875 0.421875q1.09375 0 1.59375 -0.59375q0.515625 -0.609375 0.515625 -1.953125l0 -3.65625l1.046875 0l0 6.953125l-0.859375 0l-0.15625 -0.9375l-0.0625 0q-0.328125 0.515625 -0.90625 0.796875q-0.5625 0.265625 -1.296875 0.265625q-1.28125 0 -1.90625 -0.59375q-0.625 -0.609375 -0.625 -1.9375l0 -4.546875l1.0625 0zm10.430389 7.078125q-0.6875 0 -1.25 -0.25q-0.5625 -0.25 -0.9375 -0.765625l-0.078125 0q0.078125 0.609375 0.078125 1.15625l0 2.859375l-1.046875 0l0 -10.078125l0.84375 0l0.15625 0.953125l0.046875 0q0.40625 -0.578125 0.9375 -0.828125q0.546875 -0.25 1.25 -0.25q1.375 0 2.125 0.953125q0.765625 0.9375 0.765625 2.640625q0 1.71875 -0.765625 2.671875q-0.765625 0.9375 -2.125 0.9375zm-0.15625 -6.3125q-1.0625 0 -1.546875 0.59375q-0.46875 0.578125 -0.484375 1.875l0 0.234375q0 1.46875 0.484375 2.109375q0.5 0.625 1.578125 0.625q0.890625 0 1.40625 -0.734375q0.515625 -0.734375 0.515625 -2.015625q0 -1.296875 -0.515625 -1.984375q-0.515625 -0.703125 -1.4375 -0.703125zm8.707703 -3.09375l2.609375 0q1.859375 0 2.671875 0.5625q0.828125 0.546875 0.828125 1.734375q0 0.828125 -0.46875 1.375q-0.453125 0.53125 -1.328125 0.6875l0 0.0625q2.109375 0.359375 2.109375 2.21875q0 1.25 -0.84375 1.953125q-0.828125 0.6875 -2.34375 0.6875l-3.234375 0l0 -9.28125zm1.078125 3.96875l1.765625 0q1.15625 0 1.65625 -0.359375q0.5 -0.359375 0.5 -1.203125q0 -0.78125 -0.5625 -1.125q-0.5625 -0.34375 -1.78125 -0.34375l-1.578125 0l0 3.03125zm0 0.921875l0 3.46875l1.9375 0q1.125 0 1.6875 -0.4375q0.5625 -0.4375 0.5625 -1.359375q0 -0.859375 -0.578125 -1.265625q-0.578125 -0.40625 -1.765625 -0.40625l-1.84375 0zm13.401581 0.90625q0 1.703125 -0.859375 2.65625q-0.859375 0.953125 -2.375 0.953125q-0.921875 0 -1.65625 -0.4375q-0.71875 -0.4375 -1.109375 -1.25q-0.390625 -0.828125 -0.390625 -1.921875q0 -1.703125 0.84375 -2.640625q0.859375 -0.953125 2.359375 -0.953125q1.46875 0 2.328125 0.96875q0.859375 0.96875 0.859375 2.625zm-5.296875 0q0 1.328125 0.53125 2.03125q0.53125 0.703125 1.5625 0.703125q1.03125 0 1.5625 -0.6875q0.546875 -0.703125 0.546875 -2.046875q0 -1.328125 -0.546875 -2.015625q-0.53125 -0.6875 -1.578125 -0.6875q-1.03125 0 -1.5625 0.6875q-0.515625 0.671875 -0.515625 2.015625zm8.394012 3.484375l-1.046875 0l0 -9.875l1.046875 0l0 9.875zm4.558563 -0.75q0.28125 0 0.546875 -0.03125q0.265625 -0.046875 0.40625 -0.09375l0 0.8125q-0.171875 0.078125 -0.5 0.125q-0.328125 0.0625 -0.59375 0.0625q-2.03125 0 -2.03125 -2.125l0 -4.140625l-0.984375 0l0 -0.5l0.984375 -0.4375l0.453125 -1.484375l0.609375 0l0 1.609375l2.015625 0l0 0.8125l-2.015625 0l0 4.09375q0 0.625 0.296875 0.96875q0.296875 0.328125 0.8125 0.328125z" fill-rule="nonzero"></path><path fill="#000000" fill-opacity="0.0" d="m445.10367 79.419945l120.28348 0l0 55.30709l-120.28348 0z" fill-rule="nonzero"></path><path stroke="#000000" stroke-width="2.0" stroke-linejoin="round" stroke-linecap="butt" d="m445.10367 79.419945l120.28348 0l0 55.30709l-120.28348 0z" fill-rule="nonzero"></path><path fill="#000000" d="m478.30185 107.21724q0 2.234375 -1.125 3.515625q-1.125 1.265625 -3.125 1.265625q-2.0625 0 -3.171875 -1.25q-1.109375 -1.25 -1.109375 -3.546875q0 -2.265625 1.109375 -3.5q1.125 -1.25 3.171875 -1.25q2.0 0 3.125 1.265625q1.125 1.265625 1.125 3.5zm-7.390625 0q0 1.890625 0.796875 2.875q0.8125 0.96875 2.34375 0.96875q1.53125 0 2.3125 -0.96875q0.796875 -0.984375 0.796875 -2.875q0 -1.875 -0.78125 -2.84375q-0.78125 -0.96875 -2.328125 -0.96875q-1.53125 0 -2.34375 0.984375q-0.796875 0.96875 -0.796875 2.828125zm10.551941 -2.296875l0 4.515625q0 0.84375 0.375 1.265625q0.390625 0.421875 1.21875 0.421875q1.09375 0 1.59375 -0.59375q0.515625 -0.609375 0.515625 -1.953125l0 -3.65625l1.046875 0l0 6.953125l-0.859375 0l-0.15625 -0.9375l-0.0625 0q-0.328125 0.515625 -0.90625 0.796875q-0.5625 0.265625 -1.296875 0.265625q-1.28125 0 -1.90625 -0.59375q-0.625 -0.609375 -0.625 -1.9375l0 -4.546875l1.0625 0zm9.43042 6.203125q0.28125 0 0.546875 -0.03125q0.265625 -0.046875 0.40625 -0.09375l0 0.8125q-0.171875 0.078125 -0.5 0.125q-0.328125 0.0625 -0.59375 0.0625q-2.03125 0 -2.03125 -2.125l0 -4.140625l-0.984375 0l0 -0.5l0.984375 -0.4375l0.453125 -1.484375l0.609375 0l0 1.609375l2.015625 0l0 0.8125l-2.015625 0l0 4.09375q0 0.625 0.296875 0.96875q0.296875 0.328125 0.8125 0.328125zm5.7052 0.875q-0.6875 0 -1.25 -0.25q-0.5625 -0.25 -0.9375 -0.765625l-0.078125 0q0.078125 0.609375 0.078125 1.15625l0 2.859375l-1.046875 0l0 -10.078125l0.84375 0l0.15625 0.953125l0.046875 0q0.40625 -0.578125 0.9375 -0.828125q0.546875 -0.25 1.25 -0.25q1.375 0 2.125 0.953125q0.765625 0.9375 0.765625 2.640625q0 1.71875 -0.765625 2.671875q-0.765625 0.9375 -2.125 0.9375zm-0.15625 -6.3125q-1.0625 0 -1.546875 0.59375q-0.46875 0.578125 -0.484375 1.875l0 0.234375q0 1.46875 0.484375 2.109375q0.5 0.625 1.578125 0.625q0.890625 0 1.40625 -0.734375q0.515625 -0.734375 0.515625 -2.015625q0 -1.296875 -0.515625 -1.984375q-0.515625 -0.703125 -1.4375 -0.703125zm6.073639 -0.765625l0 4.515625q0 0.84375 0.375 1.265625q0.390625 0.421875 1.21875 0.421875q1.09375 0 1.59375 -0.59375q0.515625 -0.609375 0.515625 -1.953125l0 -3.65625l1.046875 0l0 6.953125l-0.859375 0l-0.15625 -0.9375l-0.0625 0q-0.328125 0.515625 -0.90625 0.796875q-0.5625 0.265625 -1.296875 0.265625q-1.28125 0 -1.90625 -0.59375q-0.625 -0.609375 -0.625 -1.9375l0 -4.546875l1.0625 0zm9.430389 6.203125q0.28128052 0 0.5469055 -0.03125q0.265625 -0.046875 0.40625 -0.09375l0 0.8125q-0.171875 0.078125 -0.5 0.125q-0.328125 0.0625 -0.5937805 0.0625q-2.03125 0 -2.03125 -2.125l0 -4.140625l-0.984375 0l0 -0.5l0.984375 -0.4375l0.453125 -1.484375l0.609375 0l0 1.609375l2.0156555 0l0 0.8125l-2.0156555 0l0 4.09375q0 0.625 0.296875 0.96875q0.296875 0.328125 0.8125 0.328125zm6.089264 -8.53125l2.609375 0q1.859375 0 2.671875 0.5625q0.828125 0.546875 0.828125 1.734375q0 0.828125 -0.46875 1.375q-0.453125 0.53125 -1.328125 0.6875l0 0.0625q2.109375 0.359375 2.109375 2.21875q0 1.25 -0.84375 1.953125q-0.828125 0.6875 -2.34375 0.6875l-3.234375 0l0 -9.28125zm1.078125 3.96875l1.765625 0q1.15625 0 1.65625 -0.359375q0.5 -0.359375 0.5 -1.203125q0 -0.78125 -0.5625 -1.125q-0.5625 -0.34375 -1.78125 -0.34375l-1.578125 0l0 3.03125zm0 0.921875l0 3.46875l1.9375 0q1.125 0 1.6875 -0.4375q0.5625 -0.4375 0.5625 -1.359375q0 -0.859375 -0.578125 -1.265625q-0.578125 -0.40625 -1.765625 -0.40625l-1.84375 0zm13.401611 0.90625q0 1.703125 -0.859375 2.65625q-0.859375 0.953125 -2.375 0.953125q-0.921875 0 -1.65625 -0.4375q-0.71875 -0.4375 -1.109375 -1.25q-0.390625 -0.828125 -0.390625 -1.921875q0 -1.703125 0.84375 -2.640625q0.859375 -0.953125 2.359375 -0.953125q1.46875 0 2.328125 0.96875q0.859375 0.96875 0.859375 2.625zm-5.296875 0q0 1.328125 0.53125 2.03125q0.53125 0.703125 1.5625 0.703125q1.03125 0 1.5625 -0.6875q0.546875 -0.703125 0.546875 -2.046875q0 -1.328125 -0.546875 -2.015625q-0.53125 -0.6875 -1.578125 -0.6875q-1.03125 0 -1.5625 0.6875q-0.515625 0.671875 -0.515625 2.015625zm8.393982 3.484375l-1.046875 0l0 -9.875l1.046875 0l0 9.875zm4.5585938 -0.75q0.28125 0 0.546875 -0.03125q0.265625 -0.046875 0.40625 -0.09375l0 0.8125q-0.171875 0.078125 -0.5 0.125q-0.328125 0.0625 -0.59375 0.0625q-2.03125 0 -2.03125 -2.125l0 -4.140625l-0.984375 0l0 -0.5l0.984375 -0.4375l0.453125 -1.484375l0.609375 0l0 1.609375l2.015625 0l0 0.8125l-2.015625 0l0 4.09375q0 0.625 0.296875 0.96875q0.296875 0.328125 0.8125 0.328125z" fill-rule="nonzero"></path><path fill="#000000" fill-opacity="0.0" d="m427.98557 147.51443l154.51968 0l0 55.307083l-154.51968 0z" fill-rule="nonzero"></path><path fill="#000000" d="m468.30902 164.65819q0 2.234375 -1.125 3.515625q-1.125 1.265625 -3.125 1.265625q-2.0625 0 -3.171875 -1.25q-1.109375 -1.25 -1.109375 -3.546875q0 -2.265625 1.109375 -3.5q1.125 -1.25 3.171875 -1.25q2.0 0 3.125 1.265625q1.125 1.265625 1.125 3.5zm-7.390625 0q0 1.890625 0.796875 2.875q0.8125 0.96875 2.34375 0.96875q1.53125 0 2.3125 -0.96875q0.796875 -0.984375 0.796875 -2.875q0 -1.875 -0.78125 -2.84375q-0.78125 -0.96875 -2.328125 -0.96875q-1.53125 0 -2.34375 0.984375q-0.796875 0.96875 -0.796875 2.828125zm10.551941 -2.296875l0 4.515625q0 0.84375 0.375 1.265625q0.390625 0.421875 1.21875 0.421875q1.09375 0 1.59375 -0.59375q0.515625 -0.609375 0.515625 -1.953125l0 -3.65625l1.046875 0l0 6.953125l-0.859375 0l-0.15625 -0.9375l-0.0625 0q-0.328125 0.515625 -0.90625 0.796875q-0.5625 0.265625 -1.296875 0.265625q-1.28125 0 -1.90625 -0.59375q-0.625 -0.609375 -0.625 -1.9375l0 -4.546875l1.0625 0zm9.430389 6.203125q0.28125 0 0.546875 -0.03125q0.265625 -0.046875 0.40625 -0.09375l0 0.8125q-0.171875 0.078125 -0.5 0.125q-0.328125 0.0625 -0.59375 0.0625q-2.03125 0 -2.03125 -2.125l0 -4.140625l-0.984375 0l0 -0.5l0.984375 -0.4375l0.453125 -1.484375l0.609375 0l0 1.609375l2.015625 0l0 0.8125l-2.015625 0l0 4.09375q0 0.625 0.296875 0.96875q0.296875 0.328125 0.8125 0.328125zm5.7052 0.875q-0.6875 0 -1.25 -0.25q-0.5625 -0.25 -0.9375 -0.765625l-0.078125 0q0.078125 0.609375 0.078125 1.15625l0 2.859375l-1.046875 0l0 -10.078125l0.84375 0l0.15625 0.953125l0.046875 0q0.40625 -0.578125 0.9375 -0.828125q0.546875 -0.25 1.25 -0.25q1.375 0 2.125 0.953125q0.765625 0.9375 0.765625 2.640625q0 1.71875 -0.765625 2.671875q-0.765625 0.9375 -2.125 0.9375zm-0.15625 -6.3125q-1.0625 0 -1.546875 0.59375q-0.46875 0.578125 -0.484375 1.875l0 0.234375q0 1.46875 0.484375 2.109375q0.5 0.625 1.578125 0.625q0.890625 0 1.40625 -0.734375q0.515625 -0.734375 0.515625 -2.015625q0 -1.296875 -0.515625 -1.984375q-0.515625 -0.703125 -1.4375 -0.703125zm6.073639 -0.765625l0 4.515625q0 0.84375 0.375 1.265625q0.390625 0.421875 1.21875 0.421875q1.09375 0 1.59375 -0.59375q0.515625 -0.609375 0.515625 -1.953125l0 -3.65625l1.046875 0l0 6.953125l-0.859375 0l-0.15625 -0.9375l-0.0625 0q-0.328125 0.515625 -0.90625 0.796875q-0.5625 0.265625 -1.296875 0.265625q-1.28125 0 -1.90625 -0.59375q-0.625 -0.609375 -0.625 -1.9375l0 -4.546875l1.0625 0zm9.43042 6.203125q0.28125 0 0.546875 -0.03125q0.265625 -0.046875 0.40625 -0.09375l0 0.8125q-0.171875 0.078125 -0.5 0.125q-0.328125 0.0625 -0.59375 0.0625q-2.03125 0 -2.03125 -2.125l0 -4.140625l-0.984375 0l0 -0.5l0.984375 -0.4375l0.453125 -1.484375l0.609375 0l0 1.609375l2.015625 0l0 0.8125l-2.015625 0l0 4.09375q0 0.625 0.296875 0.96875q0.296875 0.328125 0.8125 0.328125zm11.323608 -1.71875q0 1.21875 -0.890625 1.90625q-0.8905945 0.6875 -2.4062195 0.6875q-1.65625 0 -2.546875 -0.421875l0 -1.046875q0.578125 0.25 1.25 0.390625q0.671875 0.140625 1.328125 0.140625q1.078125 0 1.625 -0.40625q0.5468445 -0.421875 0.5468445 -1.15625q0 -0.46875 -0.20309448 -0.78125q-0.1875 -0.3125 -0.640625 -0.5625q-0.453125 -0.265625 -1.375 -0.59375q-1.296875 -0.46875 -1.859375 -1.09375q-0.546875 -0.640625 -0.546875 -1.671875q0 -1.0625 0.796875 -1.6875q0.8125 -0.640625 2.140625 -0.640625q1.375 0 2.5468445 0.5l-0.34375 0.9375q-1.1405945 -0.484375 -2.2343445 -0.484375q-0.859375 0 -1.34375 0.375q-0.46875 0.359375 -0.46875 1.015625q0 0.484375 0.171875 0.796875q0.171875 0.3125 0.59375 0.5625q0.421875 0.25 1.296875 0.5625q1.4687195 0.53125 2.0155945 1.125q0.546875 0.59375 0.546875 1.546875zm4.1586304 1.71875q0.28125 0 0.546875 -0.03125q0.265625 -0.046875 0.40625 -0.09375l0 0.8125q-0.171875 0.078125 -0.5 0.125q-0.328125 0.0625 -0.59375 0.0625q-2.03125 0 -2.03125 -2.125l0 -4.140625l-0.984375 0l0 -0.5l0.984375 -0.4375l0.453125 -1.484375l0.609375 0l0 1.609375l2.015625 0l0 0.8125l-2.015625 0l0 4.09375q0 0.625 0.296875 0.96875q0.296875 0.328125 0.8125 0.328125zm5.6427 -6.328125q0.453125 0 0.828125 0.0625l-0.140625 0.984375q-0.4375 -0.09375 -0.765625 -0.09375q-0.84375 0 -1.453125 0.6875q-0.59375 0.6875 -0.59375 1.703125l0 3.734375l-1.046875 0l0 -6.953125l0.859375 0l0.125 1.28125l0.046875 0q0.390625 -0.671875 0.9375 -1.03125q0.546875 -0.375 1.203125 -0.375zm5.2061768 7.203125q-1.546875 0 -2.4375 -0.9375q-0.890625 -0.9375 -0.890625 -2.609375q0 -1.6875 0.828125 -2.671875q0.828125 -0.984375 2.21875 -0.984375q1.3125 0 2.0625 0.859375q0.765625 0.859375 0.765625 2.265625l0 0.671875l-4.78125 0q0.03125 1.21875 0.609375 1.859375q0.59375 0.625 1.65625 0.625q1.125 0 2.21875 -0.46875l0 0.9375q-0.5625 0.25 -1.0625 0.34375q-0.484375 0.109375 -1.1875 0.109375zm-0.296875 -6.328125q-0.828125 0 -1.328125 0.546875q-0.5 0.546875 -0.59375 1.515625l3.640625 0q0 -1.0 -0.453125 -1.53125q-0.4375 -0.53125 -1.265625 -0.53125zm9.1026 6.203125l-0.203125 -0.984375l-0.046875 0q-0.53125 0.640625 -1.046875 0.875q-0.515625 0.234375 -1.28125 0.234375q-1.046875 0 -1.640625 -0.53125q-0.578125 -0.53125 -0.578125 -1.515625q0 -2.109375 3.375 -2.203125l1.171875 -0.046875l0 -0.4375q0 -0.8125 -0.359375 -1.203125q-0.34375 -0.390625 -1.109375 -0.390625q-0.875 0 -1.96875 0.53125l-0.328125 -0.796875q0.515625 -0.28125 1.125 -0.4375q0.609375 -0.171875 1.234375 -0.171875q1.25 0 1.84375 0.5625q0.59375 0.546875 0.59375 1.765625l0 4.75l-0.78125 0zm-2.375 -0.75q0.984375 0 1.546875 -0.53125q0.5625 -0.546875 0.5625 -1.515625l0 -0.625l-1.0625 0.046875q-1.25 0.046875 -1.8125 0.390625q-0.546875 0.34375 -0.546875 1.078125q0 0.5625 0.34375 0.859375q0.34375 0.296875 0.96875 0.296875zm14.381226 0.75l0 -4.53125q0 -0.828125 -0.359375 -1.234375q-0.34375 -0.421875 -1.09375 -0.421875q-0.984375 0 -1.453125 0.5625q-0.46875 0.5625 -0.46875 1.734375l0 3.890625l-1.0625 0l0 -4.53125q0 -0.828125 -0.359375 -1.234375q-0.34375 -0.421875 -1.109375 -0.421875q-0.984375 0 -1.453125 0.59375q-0.453125 0.59375 -0.453125 1.9375l0 3.65625l-1.046875 0l0 -6.953125l0.84375 0l0.171875 0.953125l0.0625 0q0.296875 -0.515625 0.828125 -0.796875q0.546875 -0.28125 1.21875 -0.28125q1.640625 0 2.140625 1.171875l0.046875 0q0.3125 -0.546875 0.890625 -0.859375q0.59375 -0.3125 1.359375 -0.3125q1.171875 0 1.75 0.609375q0.59375 0.59375 0.59375 1.9375l0 4.53125l-1.046875 0z" fill-rule="nonzero"></path><path fill="#000000" d="m484.26685 187.37694l-2.90625 0l0 -11.34375l2.90625 0l0 0.890625l-1.828125 0l0 9.546875l1.828125 0l0 0.90625zm3.7925415 -2.8125q0.28125 0 0.546875 -0.03125q0.265625 -0.046875 0.40625 -0.09375l0 0.8125q-0.171875 0.078125 -0.5 0.125q-0.328125 0.0625 -0.59375 0.0625q-2.03125 0 -2.03125 -2.125l0 -4.140625l-0.984375 0l0 -0.5l0.984375 -0.4375l0.453125 -1.484375l0.609375 0l0 1.609375l2.015625 0l0 0.8125l-2.015625 0l0 4.09375q0 0.625 0.296875 0.96875q0.296875 0.328125 0.8125 0.328125zm8.1427 0.75l-1.28125 -4.078125q-0.109375 -0.375 -0.4375 -1.703125l-0.0625 0q-0.25 1.109375 -0.4375 1.71875l-1.3125 4.0625l-1.21875 0l-1.90625 -6.953125l1.109375 0q0.671875 2.625 1.015625 4.0q0.359375 1.359375 0.40625 1.828125l0.0625 0q0.0625 -0.359375 0.21875 -0.921875q0.15625 -0.578125 0.265625 -0.921875l1.28125 -3.984375l1.140625 0l1.25 3.984375q0.359375 1.09375 0.484375 1.84375l0.046875 0q0.03125 -0.234375 0.140625 -0.703125q0.109375 -0.484375 1.3125 -5.125l1.09375 0l-1.921875 6.953125l-1.25 0zm7.6326904 0.125q-1.546875 0 -2.4375 -0.9375q-0.890625 -0.9375 -0.890625 -2.609375q0 -1.6875 0.828125 -2.671875q0.828125 -0.984375 2.21875 -0.984375q1.3125 0 2.0625 0.859375q0.765625 0.859375 0.765625 2.265625l0 0.671875l-4.78125 0q0.03125 1.21875 0.609375 1.859375q0.59375 0.625 1.65625 0.625q1.125 0 2.21875 -0.46875l0 0.9375q-0.5625 0.25 -1.0625 0.34375q-0.484375 0.109375 -1.1875 0.109375zm-0.296875 -6.328125q-0.828125 0 -1.328125 0.546875q-0.5 0.546875 -0.59375 1.515625l3.640625 0q0 -1.0 -0.453125 -1.53125q-0.4375 -0.53125 -1.265625 -0.53125zm7.774414 6.328125q-1.546875 0 -2.4375 -0.9375q-0.890625 -0.9375 -0.890625 -2.609375q0 -1.6875 0.828125 -2.671875q0.828125 -0.984375 2.21875 -0.984375q1.3125 0 2.0625 0.859375q0.765625 0.859375 0.765625 2.265625l0 0.671875l-4.78125 0q0.03125 1.21875 0.609375 1.859375q0.59375 0.625 1.65625 0.625q1.125 0 2.21875 -0.46875l0 0.9375q-0.5625 0.25 -1.0625 0.34375q-0.484375 0.109375 -1.1875 0.109375zm-0.296875 -6.328125q-0.828125 0 -1.328125 0.546875q-0.5 0.546875 -0.59375 1.515625l3.640625 0q0 -1.0 -0.453125 -1.53125q-0.4375 -0.53125 -1.265625 -0.53125zm7.071289 5.453125q0.28125 0 0.546875 -0.03125q0.265625 -0.046875 0.40625 -0.09375l0 0.8125q-0.171875 0.078125 -0.5 0.125q-0.328125 0.0625 -0.59375 0.0625q-2.03125 0 -2.03125 -2.125l0 -4.140625l-0.984375 0l0 -0.5l0.984375 -0.4375l0.453125 -1.484375l0.609375 0l0 1.609375l2.015625 0l0 0.8125l-2.015625 0l0 4.09375q0 0.625 0.296875 0.96875q0.296875 0.328125 0.8125 0.328125zm6.9552 -1.140625q0 0.96875 -0.734375 1.5q-0.71875 0.515625 -2.03125 0.515625q-1.375 0 -2.15625 -0.4375l0 -0.96875q0.5 0.25 1.078125 0.390625q0.578125 0.140625 1.109375 0.140625q0.828125 0 1.265625 -0.25q0.453125 -0.265625 0.453125 -0.8125q0 -0.40625 -0.359375 -0.6875q-0.34375 -0.296875 -1.375 -0.6875q-0.96875 -0.359375 -1.375 -0.625q-0.40625 -0.28125 -0.609375 -0.625q-0.203125 -0.34375 -0.203125 -0.8125q0 -0.84375 0.6875 -1.328125q0.703125 -0.5 1.90625 -0.5q1.125 0 2.1875 0.453125l-0.375 0.859375q-1.046875 -0.4375 -1.890625 -0.4375q-0.75 0 -1.140625 0.234375q-0.375 0.234375 -0.375 0.65625q0 0.265625 0.140625 0.46875q0.15625 0.203125 0.46875 0.375q0.3125 0.171875 1.21875 0.515625q1.234375 0.453125 1.671875 0.90625q0.4375 0.453125 0.4375 1.15625zm1.0769653 3.046875l1.828125 0l0 -9.546875l-1.828125 0l0 -0.890625l2.890625 0l0 11.34375l-2.890625 0l0 -0.90625z" fill-rule="nonzero"></path><path fill="#000000" fill-opacity="0.0" d="m88.58924 66.632545l0 12.787399" fill-rule="nonzero"></path><path stroke="#000000" stroke-width="2.0" stroke-linejoin="round" stroke-linecap="butt" d="m88.58924 66.632545l0 0.7873993" fill-rule="evenodd"></path><path fill="#000000" stroke="#000000" stroke-width="2.0" stroke-linecap="butt" d="m85.285774 67.419945l3.3034668 9.076195l3.3034592 -9.076195z" fill-rule="evenodd"></path><path fill="#000000" fill-opacity="0.0" d="m148.73097 107.073494l18.614166 0" fill-rule="nonzero"></path><path stroke="#000000" stroke-width="2.0" stroke-linejoin="round" stroke-linecap="butt" d="m148.73097 107.073494l6.6141663 0" fill-rule="evenodd"></path><path fill="#000000" stroke="#000000" stroke-width="2.0" stroke-linecap="butt" d="m155.34514 110.37695l9.076202 -3.3034592l-9.076202 -3.3034668z" fill-rule="evenodd"></path><path fill="#000000" fill-opacity="0.0" d="m287.61636 107.073494l18.614166 0" fill-rule="nonzero"></path><path stroke="#000000" stroke-width="2.0" stroke-linejoin="round" stroke-linecap="butt" d="m287.61636 107.073494l6.6141663 0" fill-rule="evenodd"></path><path fill="#000000" stroke="#000000" stroke-width="2.0" stroke-linecap="butt" d="m294.23053 110.37695l9.076202 -3.3034592l-9.076202 -3.3034668z" fill-rule="evenodd"></path><path fill="#000000" fill-opacity="0.0" d="m426.50174 107.073494l18.614197 0" fill-rule="nonzero"></path><path stroke="#000000" stroke-width="2.0" stroke-linejoin="round" stroke-linecap="butt" d="m426.50177 107.073494l6.6141663 0" fill-rule="evenodd"></path><path fill="#000000" stroke="#000000" stroke-width="2.0" stroke-linecap="butt" d="m433.11594 110.37695l9.076202 -3.3034592l-9.076202 -3.3034668z" fill-rule="evenodd"></path><path fill="#000000" fill-opacity="0.0" d="m505.2454 134.72704l0 12.787399" fill-rule="nonzero"></path><path stroke="#000000" stroke-width="2.0" stroke-linejoin="round" stroke-linecap="butt" d="m505.2454 134.72704l0 0.7873993" fill-rule="evenodd"></path><path fill="#000000" stroke="#000000" stroke-width="2.0" stroke-linecap="butt" d="m501.94196 135.51443l3.3034363 9.076202l3.3034668 -9.076202z" fill-rule="evenodd"></path></g></svg>

